<svg width="19" height="15" viewBox="0 0 19 15" fill="none" xmlns="http://www.w3.org/2000/svg">
<path fill-rule="evenodd" clip-rule="evenodd" d="M3.73589 3.96702e-07H15.0941C15.5071 -8.77205e-06 15.8634 -1.8026e-05 16.1584 0.0195756C16.4689 0.0402144 16.7795 0.0856 17.0864 0.209378C17.7784 0.488548 18.3284 1.02403 18.615 1.69801C18.7421 1.99684 18.7887 2.29933 18.8099 2.60174C18.83 2.88896 18.83 3.23598 18.83 3.63817V11.0318C18.83 11.434 18.83 11.781 18.8099 12.0683C18.7887 12.3707 18.7421 12.6731 18.615 12.972C18.3284 13.6459 17.7784 14.1815 17.0864 14.4606C16.7795 14.5844 16.4689 14.6298 16.1584 14.6505C15.8634 14.67 15.5071 14.67 15.0941 14.67H3.73588C3.32289 14.67 2.96655 14.67 2.67162 14.6505C2.36108 14.6298 2.05047 14.5844 1.74361 14.4606C1.05153 14.1815 0.501669 13.6459 0.215001 12.972C0.0878988 12.6731 0.0412945 12.3707 0.0201013 12.0683C-1.85101e-05 11.781 -9.00764e-06 11.434 4.07357e-07 11.0318V3.63818C-9.00764e-06 3.23599 -1.85101e-05 2.88896 0.0201013 2.60174C0.0412945 2.29933 0.0878988 1.99684 0.215001 1.69801C0.501669 1.02403 1.05153 0.488548 1.74361 0.209378C2.05047 0.0856 2.36108 0.0402144 2.67162 0.0195756C2.96655 -1.8026e-05 3.3229 -8.77205e-06 3.73589 3.96702e-07ZM2.18188 2.08843C2.52429 1.70735 3.1191 1.66873 3.51042 2.00218L8.79502 6.50523C9.14997 6.80771 9.68003 6.80771 10.035 6.50523L15.3196 2.00218C15.7109 1.66873 16.3057 1.70735 16.6481 2.08843C16.9905 2.46952 16.9509 3.04877 16.5596 3.38221L11.2749 7.88531C10.21 8.79274 8.62 8.79274 7.55507 7.88531L2.27046 3.38221C1.87913 3.04877 1.83947 2.46952 2.18188 2.08843Z" fill="url(#paint0_linear_5648_561)"/>
<defs>
<linearGradient id="paint0_linear_5648_561" x1="0" y1="7.335" x2="18.83" y2="7.335" gradientUnits="userSpaceOnUse">
<stop stop-color="#232A86"/>
<stop offset="1" stop-color="#52B7FF"/>
</linearGradient>
</defs>
</svg>
